<?xml version="1.0" encoding="UTF-8" standalone="no"?>
<!DOCTYPE svg PUBLIC "-//W3C//DTD SVG 1.1//EN" "http://www.w3.org/Graphics/SVG/1.1/DTD/svg11.dtd">
<svg width="100%" height="100%" viewBox="0 0 1500 1500" version="1.1" xmlns="http://www.w3.org/2000/svg" xmlns:xlink="http://www.w3.org/1999/xlink" xml:space="preserve" xmlns:serif="http://www.serif.com/" style="fill-rule:evenodd;clip-rule:evenodd;stroke-linejoin:round;stroke-miterlimit:2;">
    <g transform="matrix(1,0,0,1,-304.221,-1397.58)">
        <g transform="matrix(1.06305,0,0,0.877176,-287.293,1274.57)">
            <path d="M1721.44,864.732C1721.44,826.944 1701.76,796.264 1677.52,796.264L782.417,796.264C758.178,796.264 738.498,826.944 738.498,864.732L738.498,1459.19C738.498,1496.98 758.178,1527.66 782.417,1527.66L1677.52,1527.66C1701.76,1527.66 1721.44,1496.98 1721.44,1459.19L1721.44,864.732Z" style="fill:rgb(161,161,161);"/>
        </g>
        <g transform="matrix(0.189167,0,0,0.597031,433.032,1600.09)">
            <path d="M1721.44,833.769C1721.44,813.069 1680.21,796.264 1629.42,796.264L830.514,796.264C779.729,796.264 738.498,813.069 738.498,833.769L738.498,1490.16C738.498,1510.86 779.729,1527.66 830.514,1527.66L1629.42,1527.66C1680.21,1527.66 1721.44,1510.86 1721.44,1490.16L1721.44,833.769Z" style="fill:white;"/>
        </g>
        <g transform="matrix(0.189167,0,0,0.597031,668.28,1600.09)">
            <path d="M1721.44,833.769C1721.44,813.069 1680.21,796.264 1629.42,796.264L830.514,796.264C779.729,796.264 738.498,813.069 738.498,833.769L738.498,1490.16C738.498,1510.86 779.729,1527.66 830.514,1527.66L1629.42,1527.66C1680.21,1527.66 1721.44,1510.86 1721.44,1490.16L1721.44,833.769Z" style="fill:white;"/>
        </g>
        <g transform="matrix(0.189167,0,0,0.597031,903.528,1600.09)">
            <path d="M1721.44,833.769C1721.44,813.069 1680.21,796.264 1629.42,796.264L830.514,796.264C779.729,796.264 738.498,813.069 738.498,833.769L738.498,1490.16C738.498,1510.86 779.729,1527.66 830.514,1527.66L1629.42,1527.66C1680.21,1527.66 1721.44,1510.86 1721.44,1490.16L1721.44,833.769Z" style="fill:white;"/>
        </g>
        <g transform="matrix(0.0509174,0,0,0.404071,1523.02,1824.31)">
            <path d="M1721.44,828.36C1721.44,810.646 1632.72,796.264 1523.44,796.264L936.497,796.264C827.219,796.264 738.498,810.646 738.498,828.36L738.498,1495.57C738.498,1513.28 827.219,1527.66 936.497,1527.66L1523.44,1527.66C1632.72,1527.66 1721.44,1513.28 1721.44,1495.57L1721.44,828.36Z" style="fill:rgb(161,161,161);"/>
        </g>
    </g>
</svg>
