<?xml version="1.0" encoding="UTF-8" standalone="no"?>
<!DOCTYPE svg PUBLIC "-//W3C//DTD SVG 1.1//EN" "http://www.w3.org/Graphics/SVG/1.1/DTD/svg11.dtd">
<svg width="100%" height="100%" viewBox="0 0 1303 951" version="1.1" xmlns="http://www.w3.org/2000/svg" xmlns:xlink="http://www.w3.org/1999/xlink" xml:space="preserve" xmlns:serif="http://www.serif.com/" style="fill-rule:evenodd;clip-rule:evenodd;stroke-linejoin:round;stroke-miterlimit:2;">
    <g transform="matrix(1,0,0,1,-536.5,-517.928)">
        <path d="M871.8,1256.7L731.153,1295.58C702.231,1303.58 672.259,1286.59 664.263,1257.67L538.477,802.69C530.481,773.769 547.47,743.796 576.392,735.8L1357.31,519.904C1386.23,511.908 1416.2,528.898 1424.19,557.819L1502.75,841.94L953.109,841.94C908.233,841.94 871.8,878.374 871.8,923.25L871.8,1256.7Z" style="fill:rgb(161,161,161);"/>
        <g transform="matrix(0.934893,0,0,0.794074,229.571,255.679)">
            <path d="M1721.44,864.732C1721.44,826.944 1695.38,796.264 1663.28,796.264L796.653,796.264C764.557,796.264 738.498,826.944 738.498,864.732L738.498,1459.19C738.498,1496.98 764.557,1527.66 796.653,1527.66L1663.28,1527.66C1695.38,1527.66 1721.44,1496.98 1721.44,1459.19L1721.44,864.732Z" style="fill:rgb(161,161,161);"/>
        </g>
        <g transform="matrix(0.14951,0,0,0.160914,873.575,932.541)">
            <path d="M1721.44,864.732C1721.44,826.944 1688.42,796.264 1647.75,796.264L812.189,796.264C771.518,796.264 738.498,826.944 738.498,864.732L738.498,1459.19C738.498,1496.98 771.518,1527.66 812.189,1527.66L1647.75,1527.66C1688.42,1527.66 1721.44,1496.98 1721.44,1459.19L1721.44,864.732Z" style="fill:white;"/>
        </g>
        <g transform="matrix(0.980003,-0.270937,0.517447,1.87165,-315.652,-108.281)">
            <rect x="598.28" y="579.621" width="847.149" height="49.836" style="fill:white;"/>
        </g>
    </g>
</svg>
