<?xml version="1.0" encoding="UTF-8" standalone="no"?>
<!DOCTYPE svg PUBLIC "-//W3C//DTD SVG 1.1//EN" "http://www.w3.org/Graphics/SVG/1.1/DTD/svg11.dtd">
<svg width="100%" height="100%" viewBox="0 0 8001 1442" version="1.1" xmlns="http://www.w3.org/2000/svg" xmlns:xlink="http://www.w3.org/1999/xlink" xml:space="preserve" xmlns:serif="http://www.serif.com/" style="fill-rule:evenodd;clip-rule:evenodd;stroke-linejoin:round;stroke-miterlimit:2;">
    <g transform="matrix(1,0,0,1,-1111.08,-7252.34)">
        <g transform="matrix(1,0,0,1,38.2697,-152.527)">
            <text x="2640.15px" y="8557.72px" style="font-family:'HelveticaNeue-Bold', 'Helvetica Neue';font-weight:700;font-size:1479.54px;fill:white;">T<tspan x="3378.44px " y="8557.72px ">r</tspan></text>
            <text x="3924.39px" y="8557.72px" style="font-family:'HelveticaNeue-Bold', 'Helvetica Neue';font-weight:700;font-size:1479.54px;fill:white;">i<tspan x="4233.61px " y="8557.72px ">a</tspan></text>
            <text x="5010.37px" y="8557.72px" style="font-family:'HelveticaNeue-Bold', 'Helvetica Neue';font-weight:700;font-size:1479.54px;fill:white;">n<tspan x="5807.85px 6631.95px 7429.42px 7731.25px 8500.61px " y="8557.72px 8557.72px 8557.72px 8557.72px 8557.72px ">gular</tspan></text>
        </g>
        <g transform="matrix(1,0,0,1,-56.0063,-50.7362)">
            <path d="M1794.41,7303.08C2140.64,7303.08 2421.73,7584.17 2421.73,7930.4C2421.73,8276.63 2140.64,8557.72 1794.41,8557.72C1448.18,8557.72 1167.09,8276.63 1167.09,7930.4C1167.09,7584.17 1448.18,7303.08 1794.41,7303.08ZM1794.41,8493.62L1242.12,8021.26L2346.7,8021.26L1794.41,8493.62Z" style="fill:white;"/>
        </g>
    </g>
</svg>
