<?xml version="1.0" encoding="UTF-8" standalone="no"?>
<!DOCTYPE svg PUBLIC "-//W3C//DTD SVG 1.1//EN" "http://www.w3.org/Graphics/SVG/1.1/DTD/svg11.dtd">
<svg width="100%" height="100%" viewBox="0 0 1287 485" version="1.1" xmlns="http://www.w3.org/2000/svg" xmlns:xlink="http://www.w3.org/1999/xlink" xml:space="preserve" xmlns:serif="http://www.serif.com/" style="fill-rule:evenodd;clip-rule:evenodd;stroke-linecap:round;stroke-miterlimit:1.5;">
    <g transform="matrix(1,0,0,1,-3103.77,-694.275)">
        <g transform="matrix(1.30887,0,-2.77556e-17,0.620788,2137.18,230.01)">
            <path d="M1721.44,864.732C1721.44,826.944 1706.89,796.264 1688.97,796.264L770.972,796.264C753.049,796.264 738.498,826.944 738.498,864.732L738.498,1459.19C738.498,1496.98 753.049,1527.66 770.972,1527.66L1688.97,1527.66C1706.89,1527.66 1721.44,1496.98 1721.44,1459.19L1721.44,864.732Z" style="fill:rgb(161,161,161);"/>
        </g>
        <g transform="matrix(0.493555,0,0,0.493555,1630.44,366.829)">
            <path d="M3170.29,724.321L3170.29,907.744" style="fill:white;stroke:white;stroke-width:67.54px;"/>
        </g>
        <g transform="matrix(-0.493555,0,0,0.493555,5035.55,366.829)">
            <path d="M3170.29,724.321L3170.29,907.744" style="fill:none;stroke:white;stroke-width:67.54px;"/>
        </g>
        <g transform="matrix(-0.493555,0,0,0.493555,5311.24,366.829)">
            <path d="M3170.29,724.321L3170.29,907.744" style="fill:none;stroke:white;stroke-width:67.54px;"/>
        </g>
        <g transform="matrix(-0.493555,0,0,0.493555,5586.93,366.829)">
            <path d="M3170.29,724.321L3170.29,907.744" style="fill:none;stroke:white;stroke-width:67.54px;"/>
        </g>
        <g transform="matrix(-0.493555,0,0,0.493555,5862.61,366.829)">
            <path d="M3170.29,724.321L3170.29,907.744" style="fill:none;stroke:white;stroke-width:67.54px;"/>
        </g>
        <g transform="matrix(0.892202,0,0,0.892202,504.455,78.0806)">
            <path d="M3170.29,724.321L3170.29,907.744" style="fill:none;stroke:white;stroke-width:37.36px;"/>
        </g>
        <g transform="matrix(0.892202,0,0,0.892202,780.142,78.0806)">
            <path d="M3170.29,724.321L3170.29,907.744" style="fill:none;stroke:white;stroke-width:37.36px;"/>
        </g>
        <g transform="matrix(0.892202,0,0,0.892202,1055.83,78.0806)">
            <path d="M3170.29,724.321L3170.29,907.744" style="fill:none;stroke:white;stroke-width:37.36px;"/>
        </g>
        <g transform="matrix(0.892202,0,0,0.892202,1331.52,78.0806)">
            <path d="M3170.29,724.321L3170.29,907.744" style="fill:none;stroke:white;stroke-width:37.36px;"/>
        </g>
    </g>
</svg>
