<?xml version="1.0" encoding="UTF-8" standalone="no"?>
<!DOCTYPE svg PUBLIC "-//W3C//DTD SVG 1.1//EN" "http://www.w3.org/Graphics/SVG/1.1/DTD/svg11.dtd">
<svg width="100%" height="100%" viewBox="0 0 24 24" version="1.1" xmlns="http://www.w3.org/2000/svg" xmlns:xlink="http://www.w3.org/1999/xlink" xml:space="preserve" xmlns:serif="http://www.serif.com/" style="fill-rule:evenodd;clip-rule:evenodd;stroke-linejoin:round;stroke-miterlimit:2;">
    <g transform="matrix(-1,0,0,-1,24,24)">
        <rect x="0" y="0" width="24" height="24" style="fill:none;fill-rule:nonzero;"/>
    </g>
    <g transform="matrix(-1.01391,0,0,-1.01391,23.4324,25.1808)">
        <path d="M15,3L6,3C5.17,3 4.46,3.5 4.16,4.22L1.22,11.27C1.13,11.5 1.08,11.74 1.08,12L1.08,14C1.08,15.1 1.9,16 3,16L7.574,16.103L6.934,18.749L6.931,19.367C6.931,19.777 8.5,21.68 8.77,21.95L9.83,23L16.42,16.41C16.78,16.05 17,15.55 17,15L17,5C17,3.9 16.1,3 15,3ZM16.685,3.975L16.685,15.975L21.471,15.975L21.471,3.975L16.685,3.975Z" style="fill:white;fill-rule:nonzero;"/>
    </g>
    <g transform="matrix(-0.762349,0,0,-0.762349,20.801,22.574)">
        <path d="M15,3L6,3C5.17,3 4.46,3.5 4.16,4.22L1.14,11.27C1.05,11.5 1,11.74 1,12L1,14C1,15.1 1.9,16 3,16L9.31,16L8.36,20.57L8.33,20.89C8.33,21.3 8.5,21.68 8.77,21.95L9.83,23L16.42,16.41C16.78,16.05 17,15.55 17,15L17,5C17,3.9 16.1,3 15,3ZM19.158,3.509L19.158,15.509L23.158,15.509L23.158,3.509L19.158,3.509Z" style="fill-rule:nonzero;"/>
    </g>
</svg>
